<?xml version="1.0" encoding="utf-8"?>
<!-- Generator: Adobe Illustrator 18.1.1, SVG Export Plug-In . SVG Version: 6.00 Build 0)  -->
<svg version="1.1" id="Capa_1" xmlns="http://www.w3.org/2000/svg" xmlns:xlink="http://www.w3.org/1999/xlink" x="0px" y="0px"
	 viewBox="-47 138.7 516.3 516.3" enable-background="new -47 138.7 516.3 516.3" xml:space="preserve">
<g>
	<g>
		<path fill="#D9534F" d="M253.3,553.6c-1.9-3.8-7.6-5.7-13.4-3.8l-19.1,11.5v-21c0-5.7-3.8-9.6-9.6-9.6s-9.6,3.8-9.6,9.6v21
			l-19.1-11.5c-3.8-1.9-9.6,0-13.4,3.8c-1.9,3.8-1.9,9.6,3.8,13.4l19.1,11.5L172.9,590c-3.8,1.9-5.7,7.6-3.8,13.4
			c1.9,3.8,7.7,5.7,13.4,3.8l19.1-11.5v21c0,5.7,3.8,9.6,9.6,9.6c5.8,0,9.6-3.8,9.6-9.6v-21l19.1,11.5c3.8,1.9,9.6,0,13.4-3.8
			c1.9-5.7,0-11.5-3.8-13.4l-19.1-11.5l19.1-11.5C253.3,565.1,255.2,559.3,253.3,553.6z"/>
		<path fill="#D9534F" d="M138.6,534.5c-1.9-3.8-7.7-5.7-13.4-3.8l-19.1,11.5v-21c0-5.7-3.8-9.6-9.6-9.6s-9.6,3.8-9.6,9.6v21
			l-19.1-11.5c-3.8-1.9-9.6,0-13.4,3.8c-1.9,3.8-1.9,9.6,3.8,13.4l19.1,11.5l-19.1,11.5c-3.8,1.9-5.7,7.6-3.8,13.4
			c3.8,3.8,9.6,5.7,13.4,1.9l19.1-11.5v21c0,5.7,3.8,9.6,9.6,9.6s9.6-3.8,9.6-9.6v-21l19.1,11.5c3.8,1.9,9.6,0,13.4-3.8
			c1.9-3.8,0-9.6-3.8-11.5l-19.1-11.5l19.1-11.5C138.6,545.9,140.5,540.2,138.6,534.5z"/>
		<path fill="#D9534F" d="M412.1,308.8c0-57.4-47.8-103.3-105.2-103.3c-21,0-38.2,5.7-55.5,15.3c-24.9-32.5-63.1-53.5-107.1-53.5
			c-74.6,0-133.9,59.3-133.9,133.9c0,1.9,0,5.7,0,7.6C-24,324.1-47,356.6-47,396.8c0,53.5,42.1,95.6,95.6,95.6h325.1
			c53.5,0,95.6-42.1,95.6-95.6C469.5,356.6,446.5,324.1,412.1,308.8z M373.8,473.3H48.7c-42.1,0-76.5-34.4-76.5-76.5
			c0-36.3,24.9-66.9,59.3-74.6c-1.9-7.7-1.9-13.4-1.9-21c0-63.1,51.6-114.8,114.8-114.8c44,0,84.1,24.9,103.3,63.1
			c15.3-15.3,36.3-24.9,59.3-24.9c47.8,0,86.1,38.2,86.1,86.1c0,3.8,0,7.6,0,11.5c32.5,7.6,57.4,38.2,57.4,74.6
			C450.3,438.9,415.9,473.3,373.8,473.3z"/>
		<path fill="#D9534F" d="M368.1,534.5c-1.9-3.8-7.6-5.7-13.4-3.8l-19.1,11.5v-21c0-5.7-3.8-9.6-9.6-9.6s-9.6,3.8-9.6,9.6v21
			l-19.1-11.5c-3.8-1.9-9.6,0-13.4,3.8c-1.9,3.8-1.9,9.6,3.8,13.4l19.1,11.5l-19.1,11.5c-3.8,1.9-5.7,7.6-3.8,13.4
			c1.9,3.8,7.6,5.7,13.4,3.8l19.1-11.5v21c0,5.7,3.8,9.6,9.6,9.6s9.6-3.8,9.6-9.6v-21l19.1,11.5c3.8,1.9,9.6,0,13.4-3.8
			c1.9-5.7,0-11.5-3.8-13.4l-19.1-11.5l19.1-11.5C368.1,545.9,370,540.2,368.1,534.5z"/>
	</g>
</g>
</svg>
