<?xml version="1.0" encoding="utf-8"?>
<!-- Generator: Adobe Illustrator 18.1.1, SVG Export Plug-In . SVG Version: 6.00 Build 0)  -->
<svg version="1.1" id="Capa_1" xmlns="http://www.w3.org/2000/svg" xmlns:xlink="http://www.w3.org/1999/xlink" x="0px" y="0px"
	 viewBox="-47 138.7 516.3 516.3" enable-background="new -47 138.7 516.3 516.3" xml:space="preserve">
<g>
	<path fill="#D9534F" d="M412.1,375.8c0-57.4-47.8-103.3-105.2-103.3c-21,0-38.2,5.7-55.5,15.3c-24.9-32.5-63.1-53.5-107.1-53.5
		c-74.6,0-133.9,59.3-133.9,133.9c0,1.9,0,5.7,0,7.6C-24,391.1-47,423.6-47,463.8c0,53.5,42.1,95.6,95.6,95.6h325.1
		c53.5,0,95.6-42.1,95.6-95.6C469.5,423.6,446.5,391.1,412.1,375.8z M373.8,540.3H48.7c-42.1,0-76.5-34.4-76.5-76.5
		c0-36.3,24.9-66.9,59.3-74.6c-1.9-7.7-1.9-13.4-1.9-21c0-63.1,51.6-114.8,114.8-114.8c44,0,84.1,24.9,103.3,63.1
		c15.3-15.3,36.3-24.9,59.3-24.9c47.8,0,86.1,38.2,86.1,86.1c0,3.8,0,7.6,0,11.5c32.5,7.6,57.4,38.2,57.4,74.6
		C450.3,505.9,415.9,540.3,373.8,540.3z"/>
</g>
</svg>
