<?xml version="1.0" encoding="utf-8"?>
<!-- Generator: Adobe Illustrator 18.1.1, SVG Export Plug-In . SVG Version: 6.00 Build 0)  -->
<svg version="1.1" id="Capa_1" xmlns="http://www.w3.org/2000/svg" xmlns:xlink="http://www.w3.org/1999/xlink" x="0px" y="0px"
	 viewBox="-47 138.7 516.3 516.3" enable-background="new -47 138.7 516.3 516.3" xml:space="preserve">
<g>
	<g>
		<path fill="#D9534F" d="M392.8,349c0,5.7,3.8,9.6,9.6,9.6h38.2c5.7,0,9.6-3.8,9.6-9.6c0-5.8-3.8-9.6-9.6-9.6h-38.2
			C396.7,339.4,392.8,345.2,392.8,349z"/>
		<path fill="#D9534F" d="M369.9,261l26.8-26.8c3.8-3.8,3.8-9.6,0-13.4c-3.8-3.8-9.6-3.8-13.4,0l-26.8,26.8c-3.8,3.8-3.8,9.6,0,13.4
			C360.3,264.8,366.1,264.8,369.9,261z"/>
		<path fill="#D9534F" d="M268.5,224.7c5.7,0,9.6-3.8,9.6-9.6v-38.2c0-5.7-3.8-9.6-9.6-9.6s-9.6,3.8-9.6,9.6v38.2
			C259,220.8,262.8,224.7,268.5,224.7z"/>
		<path fill="#D9534F" d="M167.2,261c3.8,3.8,9.6,3.8,13.4,0c3.8-3.8,3.8-9.6,0-13.4l-26.8-26.8c-3.8-3.8-9.6-3.8-13.4,0
			c-3.8,3.8-3.8,9.6,0,13.4L167.2,261z"/>
		<path fill="#D9534F" d="M412,442.7c0-32.5-15.3-61.2-38.2-80.3c0-3.8,0-9.6,0-13.4c0-57.4-47.8-105.2-105.2-105.2
			c-42.1,0-78.4,24.9-95.6,61.2c-9.6-1.9-19.1-3.8-28.7-3.8c-74.6,0-133.9,59.3-133.9,133.9c0,1.9,0,5.7,0,7.6
			C-24,458.1-47,490.6-47,530.8c0,53.5,42.1,95.6,95.6,95.6h325.1c53.5,0,95.6-42.1,95.6-95.6C469.4,490.5,446.4,458,412,442.7z
			 M268.5,262.9c47.8,0,86.1,38.2,86.1,86.1v1.9c-15.3-7.7-30.6-11.5-47.8-11.5c-21,0-38.2,5.7-55.5,15.3
			c-15.3-21-36.3-36.3-59.3-45.9C205.4,282.1,236,262.9,268.5,262.9z M373.7,607.2H48.6c-42.1,0-76.5-34.4-76.5-76.5
			c0-36.3,24.9-66.9,59.3-74.6c-1.9-7.7-1.9-13.4-1.9-21c0-63.1,51.6-114.8,114.8-114.8c44,0,84.1,24.9,103.3,63.1
			c15.3-15.3,36.3-24.9,59.3-24.9c47.8,0,86.1,38.2,86.1,86.1c0,3.8,0,7.6,0,11.5c32.5,7.6,57.4,38.2,57.4,74.6
			C450.2,572.8,415.8,607.2,373.7,607.2z"/>
	</g>
</g>
</svg>
