<?xml version="1.0" encoding="utf-8"?>
<!-- Generator: Adobe Illustrator 18.1.1, SVG Export Plug-In . SVG Version: 6.00 Build 0)  -->
<svg version="1.1" id="Capa_1" xmlns="http://www.w3.org/2000/svg" xmlns:xlink="http://www.w3.org/1999/xlink" x="0px" y="0px"
	 viewBox="-47 138.7 516.3 516.3" enable-background="new -47 138.7 516.3 516.3" xml:space="preserve">
<g>
	<path fill="#D9534F" d="M412.1,375.9c0-57.4-47.8-103.3-105.2-103.3c-21,0-38.2,5.7-55.5,15.3c-24.8-32.5-63.1-53.5-107.1-53.5
		c-68.9,0-126.2,53.5-133.9,120.5c0,1.9,0,1.9,0,3.8v1.9c0,1.9,0,5.7,0,7.6c0,1.9,0,5.7,0,7.6C-24,391.1-47,423.6-47,463.8
		c0,1.9,0,5.7,0,7.6v1.9c0,1.9,0,3.8,1.9,3.8c5.7,45.9,45.9,82.2,93.7,82.2h325.1c47.8,0,88-36.3,93.7-82.2c0-1.9,1.9-1.9,1.9-3.8
		v-1.9c0-1.9,0-5.7,0-7.6C469.5,423.7,446.5,391.2,412.1,375.9z M306.9,291.8c21,0,40.2,7.6,53.5,19.1h-109
		C266.7,299.4,285.8,291.8,306.9,291.8z M144.3,253.5c23,0,45.9,7.6,63.1,19.1H81.2C98.4,261.2,121.4,253.5,144.3,253.5z
		 M58.3,291.8h170.2c5.7,5.7,9.6,11.5,13.4,19.1h-197C48.7,303.3,54.4,297.5,58.3,291.8z M37.2,330c0,0,1.9,0,3.8,0h338.5
		c3.8,5.7,7.6,11.5,9.6,19.1H31.5C31.5,341.5,33.4,335.8,37.2,330z M392.9,368.3c0,3.8,0,5.7,0,9.6s0,5.7,0,9.6H31.5
		c-1.9-5.7-1.9-13.4-1.9-19.1h363.3V368.3z M-1,406.5h1.9h420.8h1.9c5.7,5.7,11.5,11.5,15.3,19.1H-18.2C-12.5,418-8.7,412.3-1,406.5
		z M373.8,540.4H48.7c-19.1,0-36.3-7.6-49.7-19.1h426.5C410.2,532.8,392.9,540.4,373.8,540.4z M440.8,502.2h-459
		c-3.8-5.7-5.7-11.5-7.7-19.1h472.4C446.5,490.7,442.7,496.4,440.8,502.2z M-27.8,463.9c0-5.7,0-13.4,1.9-19.1h472.4
		c1.9,5.7,1.9,13.4,1.9,19.1H-27.8z"/>
</g>
</svg>
