<?xml version="1.0" encoding="utf-8"?>
<!-- Generator: Adobe Illustrator 18.1.1, SVG Export Plug-In . SVG Version: 6.00 Build 0)  -->
<svg version="1.1" id="Capa_1" xmlns="http://www.w3.org/2000/svg" xmlns:xlink="http://www.w3.org/1999/xlink" x="0px" y="0px"
	 viewBox="0 91 612 612" enable-background="new 0 91 612 612" xml:space="preserve">
<g>
	<g>
		<path fill="#D9534F" d="M262,184.7c3.8,3.8,9.6,3.8,13.4,0s3.8-9.6,0-13.4l-26.8-26.8c-3.8-3.8-9.6-3.8-13.4,0
			c-3.8,3.8-3.8,9.6,0,13.4L262,184.7z"/>
		<path fill="#D9534F" d="M363.4,148.4c5.7,0,9.6-3.8,9.6-9.6v-38.2c0-5.7-3.8-9.6-9.6-9.6s-9.6,3.8-9.6,9.6v38.2
			C353.9,144.5,357.6,148.4,363.4,148.4z"/>
		<path fill="#D9534F" d="M487.6,272.7c0,5.7,3.8,9.6,9.6,9.6h38.2c5.7,0,9.6-3.8,9.6-9.6c0-5.8-3.8-9.6-9.6-9.6h-38.2
			C491.5,263.1,487.6,268.9,487.6,272.7z"/>
		<path fill="#D9534F" d="M464.8,184.7l26.8-26.8c3.8-3.8,3.8-9.6,0-13.4c-3.8-3.8-9.6-3.8-13.4,0l-26.8,26.8
			c-3.8,3.8-3.8,9.6,0,13.4C455.1,188.5,460.9,188.5,464.8,184.7z"/>
		<path fill="#D9534F" d="M172.1,569.1c0,0-47.8,45.9-47.8,74.6c0,21,15.3,40.2,47.8,40.2s47.8-21,47.8-40.2
			C219.9,615,172.1,569.1,172.1,569.1z M172.1,664.8c-15.3,0-28.7-5.7-28.7-23c0-13.4,28.7-44,28.7-44s28.7,30.6,28.7,44
			C200.9,657.1,187.4,664.8,172.1,664.8z"/>
		<path fill="#D9534F" d="M306,588.2c0,0-47.8,45.9-47.8,74.6c0,21,15.3,40.2,47.8,40.2s47.8-21,47.8-40.2
			C353.9,634.1,306,588.2,306,588.2z M306,683.9c-15.3,0-28.7-5.7-28.7-23c0-13.4,28.7-44,28.7-44s28.7,30.6,28.7,44
			C334.6,676.2,321.4,683.9,306,683.9z"/>
		<path fill="#D9534F" d="M506.9,366.4c0-32.5-15.3-61.2-38.2-80.3c0-3.8,0-9.6,0-13.4c0-57.4-47.8-105.2-105.2-105.2
			c-42.1,0-78.4,24.9-95.6,61.2c-9.6-1.9-19.1-3.8-28.7-3.8c-74.6,0-133.9,59.3-133.9,133.9c0,1.9,0,5.7,0,7.6
			c-34.4,15.3-57.4,47.8-57.4,88c0,53.5,42.1,95.6,95.6,95.6h325.1c53.5,0,95.6-42.1,95.6-95.6C564.2,414.2,541.2,381.7,506.9,366.4
			z M363.4,186.6c47.8,0,86.1,38.2,86.1,86.1v1.9c-15.3-7.7-30.6-11.5-47.8-11.5c-21,0-38.2,5.7-55.5,15.3
			c-15.3-21-36.3-36.3-59.3-45.9C300.2,205.8,330.9,186.6,363.4,186.6z M468.5,530.9H143.4c-42.1,0-76.5-34.4-76.5-76.5
			c0-36.3,24.9-66.9,59.3-74.6c-1.9-7.7-1.9-13.4-1.9-21c0-63.1,51.6-114.8,114.8-114.8c44,0,84.1,24.9,103.3,63.1
			c15.3-15.3,36.3-24.9,59.3-24.9c47.8,0,86.1,38.2,86.1,86.1c0,3.8,0,7.6,0,11.5c32.5,7.6,57.4,38.2,57.4,74.6
			C545,496.5,510.6,530.9,468.5,530.9z"/>
		<path fill="#D9534F" d="M439.9,569.1c0,0-47.8,45.9-47.8,74.6c0,21,15.3,40.2,47.8,40.2s47.8-21,47.8-40.2
			C487.6,615,439.9,569.1,439.9,569.1z M439.9,664.8c-15.3,0-28.7-5.7-28.7-23c0-13.4,28.7-44,28.7-44s28.7,30.6,28.7,44
			C468.5,657.1,455.1,664.8,439.9,664.8z"/>
	</g>
</g>
</svg>
