<?xml version="1.0" encoding="utf-8"?>
<!-- Generator: Adobe Illustrator 18.1.1, SVG Export Plug-In . SVG Version: 6.00 Build 0)  -->
<svg version="1.1" id="Capa_1" xmlns="http://www.w3.org/2000/svg" xmlns:xlink="http://www.w3.org/1999/xlink" x="0px" y="0px"
	 viewBox="-18 110.2 573.8 573.8" enable-background="new -18 110.2 573.8 573.8" xml:space="preserve">
<g>
	<g>
		<path fill="#D9534F" d="M224.9,203.9c3.8,3.8,9.6,3.8,13.4,0c3.8-3.8,3.8-9.6,0-13.4l-26.8-26.8c-3.8-3.8-9.6-3.8-13.4,0
			c-3.8,3.8-3.8,9.6,0,13.4L224.9,203.9z"/>
		<path fill="#D9534F" d="M154.1,588.3c-5.7,0-9.6,3.8-9.6,9.6v38.2c0,5.7,3.8,9.6,9.6,9.6s9.6-3.8,9.6-9.6v-38.2
			C163.8,592.2,159.9,588.3,154.1,588.3z"/>
		<path fill="#D9534F" d="M211.6,626.6c-5.7,0-9.6,3.8-9.6,9.6v38.2c0,5.7,3.8,9.6,9.6,9.6s9.6-3.8,9.6-9.6v-38.2
			C221.1,630.4,217.2,626.6,211.6,626.6z"/>
		<path fill="#D9534F" d="M450.5,291.9c0,5.7,3.8,9.6,9.6,9.6h38.2c5.7,0,9.6-3.8,9.6-9.6c0-5.8-3.8-9.6-9.6-9.6h-38.2
			C454.4,282.3,450.5,288.1,450.5,291.9z"/>
		<path fill="#D9534F" d="M427.6,203.9l26.8-26.8c3.8-3.8,3.8-9.6,0-13.4c-3.8-3.8-9.6-3.8-13.4,0l-26.8,26.8
			c-3.8,3.8-3.8,9.6,0,13.4C418,207.7,423.8,207.7,427.6,203.9z"/>
		<path fill="#D9534F" d="M326.2,167.6c5.7,0,9.6-3.8,9.6-9.6v-38.2c0-5.7-3.8-9.6-9.6-9.6s-9.6,3.8-9.6,9.6V158
			C316.8,163.7,320.5,167.6,326.2,167.6z"/>
		<path fill="#D9534F" d="M268.9,588.3c-5.7,0-9.6,3.8-9.6,9.6v38.2c0,5.7,3.8,9.6,9.6,9.6c5.8,0,9.6-3.8,9.6-9.6v-38.2
			C278.4,592.2,274.6,588.3,268.9,588.3z"/>
		<path fill="#D9534F" d="M469.8,385.6c0-32.5-15.3-61.2-38.2-80.3c0-3.8,0-9.6,0-13.4c0-57.4-47.8-105.2-105.2-105.2
			c-42.1,0-78.4,24.9-95.6,61.2c-9.6-1.9-19.1-3.8-28.7-3.8c-74.6,0-133.9,59.3-133.9,133.9c0,1.9,0,5.7,0,7.6
			c-34.4,15.3-57.4,47.8-57.4,88c0,53.5,42.1,95.6,95.6,95.6h325.1c53.5,0,95.6-42.1,95.6-95.6C527.2,433.4,504.2,400.9,469.8,385.6
			z M326.2,205.8c47.8,0,86.1,38.2,86.1,86.1v1.9c-15.3-7.7-30.6-11.5-47.8-11.5c-21,0-38.2,5.7-55.5,15.3
			c-15.3-21-36.3-36.3-59.3-45.9C263.1,225,293.8,205.8,326.2,205.8z M431.4,550.1H106.3c-42.1,0-76.5-34.4-76.5-76.5
			c0-36.3,24.9-66.9,59.3-74.6c-1.9-7.7-1.9-13.4-1.9-21c0-63.1,51.6-114.8,114.8-114.8c44,0,84.1,24.9,103.3,63.1
			c15.3-15.3,36.3-24.9,59.3-24.9c47.8,0,86.1,38.2,86.1,86.1c0,3.8,0,7.6,0,11.5c32.5,7.6,57.4,38.2,57.4,74.6
			C507.9,515.7,473.5,550.1,431.4,550.1z"/>
		<path fill="#D9534F" d="M383.6,588.3c-5.7,0-9.6,3.8-9.6,9.6v38.2c0,5.7,3.8,9.6,9.6,9.6c5.8,0,9.6-3.8,9.6-9.6v-38.2
			C393.2,592.2,389.3,588.3,383.6,588.3z"/>
		<path fill="#D9534F" d="M326.2,626.6c-5.7,0-9.6,3.8-9.6,9.6v38.2c0,5.7,3.8,9.6,9.6,9.6s9.6-3.8,9.6-9.6v-38.2
			C335.8,630.4,332,626.6,326.2,626.6z"/>
	</g>
</g>
</svg>
