<?xml version="1.0" encoding="utf-8"?>
<!-- Generator: Adobe Illustrator 18.1.1, SVG Export Plug-In . SVG Version: 6.00 Build 0)  -->
<svg version="1.1" id="Capa_1" xmlns="http://www.w3.org/2000/svg" xmlns:xlink="http://www.w3.org/1999/xlink" x="0px" y="0px"
	 viewBox="-47 138.7 516.3 516.3" enable-background="new -47 138.7 516.3 516.3" xml:space="preserve">
<g>
	<g>
		<path fill="#D9534F" d="M96.5,521.1c-5.7,0-9.6,3.8-9.6,9.6v38.2c0,5.7,3.8,9.6,9.6,9.6s9.6-3.8,9.6-9.6v-38.2
			C106.1,525,102.2,521.1,96.5,521.1z"/>
		<path fill="#D9534F" d="M153.9,559.4c-5.7,0-9.6,3.8-9.6,9.6v38.2c0,5.7,3.8,9.6,9.6,9.6s9.6-3.8,9.6-9.6V569
			C163.5,563.2,159.6,559.4,153.9,559.4z"/>
		<path fill="#D9534F" d="M211.3,521.1c-5.7,0-9.6,3.8-9.6,9.6v38.2c0,5.7,3.8,9.6,9.6,9.6c5.8,0,9.6-3.8,9.6-9.6v-38.2
			C220.8,525,217,521.1,211.3,521.1z"/>
		<path fill="#D9534F" d="M412.1,318.4c0-57.4-47.8-103.3-105.2-103.3c-21,0-38.2,5.7-55.5,15.3c-24.9-32.5-63.1-53.5-107.1-53.5
			c-74.6,0-133.9,59.3-133.9,133.9c0,1.9,0,5.7,0,7.6C-24,333.7-47,366.2-47,406.4c0,53.5,42.1,95.6,95.6,95.6h325.1
			c53.5,0,95.6-42.1,95.6-95.6C469.5,366.2,446.5,333.7,412.1,318.4z M373.8,482.9H48.7c-42.1,0-76.5-34.4-76.5-76.5
			c0-36.3,24.9-66.9,59.3-74.6c-1.9-7.7-1.9-13.4-1.9-21c0-63.1,51.6-114.8,114.8-114.8c44,0,84.1,24.9,103.3,63.1
			c15.3-15.3,36.3-24.9,59.3-24.9c47.8,0,86.1,38.2,86.1,86.1c0,3.8,0,7.6,0,11.5c32.5,7.6,57.4,38.2,57.4,74.6
			C450.3,448.5,415.9,482.9,373.8,482.9z"/>
		<path fill="#D9534F" d="M326,521.1c-5.7,0-9.6,3.8-9.6,9.6v38.2c0,5.7,3.8,9.6,9.6,9.6s9.6-3.8,9.6-9.6v-38.2
			C335.6,525,331.7,521.1,326,521.1z"/>
		<path fill="#D9534F" d="M268.6,559.4c-5.7,0-9.6,3.8-9.6,9.6v38.2c0,5.7,3.8,9.6,9.6,9.6c5.8,0,9.6-3.8,9.6-9.6V569
			C278.2,563.2,274.4,559.4,268.6,559.4z"/>
	</g>
</g>
</svg>
