<?xml version="1.0" encoding="utf-8"?>
<!-- Generator: Adobe Illustrator 18.1.1, SVG Export Plug-In . SVG Version: 6.00 Build 0)  -->
<svg version="1.1" id="Capa_1" xmlns="http://www.w3.org/2000/svg" xmlns:xlink="http://www.w3.org/1999/xlink" x="0px" y="0px"
	 viewBox="-122 214.6 365.4 365.4" enable-background="new -122 214.6 365.4 365.4" xml:space="preserve">
<g>
	<g>
		<path fill="#D9534F" d="M-64.6,396.4c0-5.7-3.8-9.6-9.6-9.6h-38.2c-5.7,0-9.6,5.7-9.6,9.6c0,5.7,3.8,9.6,9.6,9.6h38.2
			C-68.4,405.9-64.6,402.1-64.6,396.4z"/>
		<path fill="#D9534F" d="M161.1,308.4l26.8-26.8c3.8-3.8,3.8-9.6,0-13.4c-3.8-3.8-9.6-3.8-13.4,0L147.7,295
			c-3.8,3.8-3.8,9.6,0,13.4C151.6,312.2,159.2,312.2,161.1,308.4z"/>
		<path fill="#D9534F" d="M-41.6,484.3l-26.8,26.8c-3.8,3.8-3.8,9.6,0,13.4c3.8,3.8,9.6,3.8,13.4,0l26.8-26.8
			c3.8-3.8,3.8-9.6,0-13.4C-32,482.4-37.8,480.5-41.6,484.3z"/>
		<path fill="#D9534F" d="M59.8,272c5.7,0,9.6-3.8,9.6-9.6v-38.2c0-5.7-3.8-9.6-9.6-9.6c-3.8,0-9.6,3.8-9.6,9.6v38.2
			C50.2,268.2,55.9,272,59.8,272z"/>
		<path fill="#D9534F" d="M-41.6,308.4c3.8,3.8,9.6,3.8,13.4,0c3.8-3.8,3.8-9.6,0-13.4L-55,268.2c-3.8-3.8-9.6-3.8-13.4,0
			c-3.8,3.8-3.8,9.6,0,13.4L-41.6,308.4z"/>
		<path fill="#D9534F" d="M233.8,386.8h-38.2c-5.7,0-9.6,3.8-9.6,9.6c0,5.8,3.8,9.6,9.6,9.6h38.2c5.7,0,9.6-3.8,9.6-9.6
			C243.4,392.5,237.6,386.8,233.8,386.8z"/>
		<path fill="#D9534F" d="M59.8,522.6c-5.7,0-9.6,3.8-9.6,9.6v38.2c0,5.7,3.8,9.6,9.6,9.6c5.8,0,9.6-3.8,9.6-9.6v-38.2
			C69.3,526.4,65.5,522.6,59.8,522.6z"/>
		<path fill="#D9534F" d="M161.1,484.3c-3.8-3.8-9.6-3.8-13.4,0s-3.8,9.6,0,13.4l26.8,26.8c3.8,3.8,9.6,3.8,13.4,0s3.8-9.6,0-13.4
			L161.1,484.3z"/>
		<path fill="#D9534F" d="M59.8,291.2C2.4,291.2-45.4,339-45.4,396.4S2.4,501.6,59.8,501.6S165,453.8,165,396.4
			C165,339,119.1,291.2,59.8,291.2z M59.8,482.4c-47.8,0-86.1-38.2-86.1-86.1c0-47.9,38.2-86.1,86.1-86.1s86.1,38.2,86.1,86.1
			C145.9,444.2,107.6,482.4,59.8,482.4z"/>
	</g>
</g>
</svg>
