<?xml version="1.0" encoding="utf-8"?>
<!-- Generator: Adobe Illustrator 18.1.1, SVG Export Plug-In . SVG Version: 6.00 Build 0)  -->
<svg version="1.1" id="Capa_1" xmlns="http://www.w3.org/2000/svg" xmlns:xlink="http://www.w3.org/1999/xlink" x="0px" y="0px"
	 viewBox="-9 100.2 592.8 592.8" enable-background="new -9 100.2 592.8 592.8" xml:space="preserve">
<g>
	<path fill="#D9534F" d="M524.6,302.9c1.9-7.7,1.9-13.4,1.9-21c0-53.5-42.1-95.6-95.6-95.6c-36.3,0-66.9,19.1-84.1,47.8
		c-11.5-5.7-24.9-9.6-40.2-9.6c-40.2,0-72.7,26.8-82.2,63.1c-13.4-3.8-26.8-5.7-42.1-5.7c-74.6,0-133.9,59.3-133.9,133.9
		c0,1.9,0,5.7,0,7.6C14,438.7-9,471.2-9,511.4c0,53.5,42.1,95.6,95.6,95.6h325.1c53.5,0,95.6-42.1,95.6-95.6
		c0-21-7.6-42.1-19.1-57.4h19.1c42.1,0,76.5-34.4,76.5-76.5C583.9,341.2,559,310.6,524.6,302.9z M411.8,587.8H86.6
		c-42.1,0-76.5-34.4-76.5-76.5c0-36.3,24.9-66.9,59.3-74.6c-1.9-7.7-1.9-13.4-1.9-21c0-63.1,51.6-114.8,114.8-114.8
		c44,0,84.1,24.9,103.3,63.1c15.3-15.3,36.3-24.9,59.3-24.9c47.8,0,86.1,38.2,86.1,86.1c0,3.8,0,7.6,0,11.5
		c32.5,7.6,57.4,38.2,57.4,74.6C488.2,553.5,453.8,587.8,411.8,587.8z M507.4,434.9h-38.2c-5.7-3.8-11.5-7.6-19.1-11.5
		c0-57.4-47.8-103.3-105.2-103.3c-21,0-38.2,5.7-55.5,15.3c-13.4-17.2-28.7-30.6-47.8-40.2c7.6-30.6,32.5-51.6,65-51.6
		c19.1,0,38.2,7.7,49.7,21c7.6-34.4,38.2-59.3,74.6-59.3c42.1,0,76.5,34.4,76.5,76.5c0,13.4-3.8,26.8-9.6,38.2h9.6
		c32.5,0,57.4,24.9,57.4,57.4S539.9,434.9,507.4,434.9z"/>
</g>
</svg>
